0
SECTION
2
HEADER
9
$INSUNITS
70
4
9
$ACADVER
1
AC1014
9
$HANDSEED
5
FFFF
0
ENDSEC
0
SECTION
2
TABLES
0
TABLE
2
VPORT
5
8
100
AcDbSymbolTable
0
ENDTAB
0
TABLE
2
LTYPE
5
5
100
AcDbSymbolTable
0
LTYPE
5
14
100
AcDbSymbolTableRecord
100
AcDbLinetypeTableRecord
2
BYBLOCK
70
0
0
LTYPE
5
15
100
AcDbSymbolTableRecord
100
AcDbLinetypeTableRecord
2
BYLAYER
70
0
0
LTYPE
5
16
100
AcDbSymbolTableRecord
100
AcDbLinetypeTableRecord
2
DASHED
70
0
3
Dashed __ __ __ __ __ __ __ __ __ __ __ __ __ _
72
65
73
2
40
0.75
49
0.5
74
0
49
-0.25
74
0
0
ENDTAB
0
TABLE
2
LAYER
5
2
100
AcDbSymbolTable
70
3
0
LAYER
5
50
100
AcDbSymbolTableRecord
100
AcDbLayerTableRecord
2
1
70
0
62
7
6
DASHED
0
LAYER
5
51
100
AcDbSymbolTableRecord
100
AcDbLayerTableRecord
2
0
70
0
62
7
6
CONTINUOUS
0
ENDTAB
0
TABLE
2
STYLE
5
3
100
AcDbSymbolTable
70
1
0
STYLE
5
11
100
AcDbSymbolTableRecord
100
AcDbTextStyleTableRecord
2
STANDARD
70
0
0
ENDTAB
0
TABLE
2
VIEW
5
6
100
AcDbSymbolTable
70
0
0
ENDTAB
0
TABLE
2
UCS
5
7
100
AcDbSymbolTable
70
0
0
ENDTAB
0
TABLE
2
APPID
5
9
100
AcDbSymbolTable
70
2
0
APPID
5
12
100
AcDbSymbolTableRecord
100
AcDbRegAppTableRecord
2
ACAD
70
0
0
ENDTAB
0
TABLE
2
DIMSTYLE
5
A
100
AcDbSymbolTable
70
1
0
ENDTAB
0
TABLE
2
BLOCK_RECORD
5
1
100
AcDbSymbolTable
70
1
0
BLOCK_RECORD
5
1F
100
AcDbSymbolTableRecord
100
AcDbBlockTableRecord
2
*MODEL_SPACE
0
BLOCK_RECORD
5
1B
100
AcDbSymbolTableRecord
100
AcDbBlockTableRecord
2
*PAPER_SPACE
0
ENDTAB
0
ENDSEC
0
SECTION
2
BLOCKS
0
BLOCK
5
20
100
AcDbEntity
100
AcDbBlockBegin
2
*MODEL_SPACE
0
ENDBLK
5
21
100
AcDbEntity
100
AcDbBlockEnd
0
BLOCK
5
1C
100
AcDbEntity
100
AcDbBlockBegin
2
*PAPER_SPACE
0
ENDBLK
5
1D
100
AcDbEntity
100
AcDbBlockEnd
0
ENDSEC
0
SECTION
2
ENTITIES
0
LWPOLYLINE
5
100
100
AcDbEntity
8
0
100
AcDbPolyline
90
4
70
1
43
0.0
10
-72.116884481579916
20
123.39628433228714
10
-67.116884481579916
20
123.39628433228714
10
-67.116884481579916
20
117.87968981286116
10
-72.116884481579916
20
117.87968981286116
0
LWPOLYLINE
5
101
100
AcDbEntity
8
0
100
AcDbPolyline
90
4
70
1
43
0.0
10
-72.116884481579916
20
134.42947337113918
10
-67.116884481579916
20
134.42947337113918
10
-67.116884481579916
20
128.9128788517132
10
-72.116884481579916
20
128.9128788517132
0
LWPOLYLINE
5
102
100
AcDbEntity
8
0
100
AcDbPolyline
90
4
70
1
43
0.0
10
-72.116884481579916
20
145.46266240999122
10
-67.116884481579916
20
145.46266240999122
10
-67.116884481579916
20
139.94606789056519
10
-72.116884481579916
20
139.94606789056516
0
LWPOLYLINE
5
103
100
AcDbEntity
8
0
100
AcDbPolyline
90
4
70
1
43
0.0
10
-72.116884481579916
20
156.49585144884321
10
-67.116884481579916
20
156.49585144884321
10
-67.116884481579916
20
150.97925692941718
10
-72.116884481579916
20
150.97925692941718
0
LWPOLYLINE
5
104
100
AcDbEntity
8
0
100
AcDbPolyline
90
4
70
1
43
0.0
10
-72.116884481579916
20
167.5290404876952
10
-67.116884481579916
20
167.5290404876952
10
-67.116884481579916
20
162.01244596826922
10
-72.116884481579916
20
162.01244596826922
0
LWPOLYLINE
5
105
100
AcDbEntity
8
0
100
AcDbPolyline
90
4
70
1
43
0.0
10
-72.116884481579916
20
178.56222952654721
10
-67.116884481579916
20
178.56222952654721
10
-67.116884481579916
20
173.04563500712123
10
-72.116884481579916
20
173.04563500712123
0
LWPOLYLINE
5
106
100
AcDbEntity
8
0
100
AcDbPolyline
90
28
70
1
43
0.0
10
-58.116884481580968
20
173.83371993846777
10
-53.116884481580968
20
173.83371993846777
10
-53.116884481580954
20
184.07882404597325
10
-86.116884481580982
20
184.07882404597319
10
-86.116884481580982
20
173.83371993846762
10
-81.116884481580968
20
173.83371993846765
10
-81.116884481580968
20
163.58861583096223
10
-86.116884481580982
20
163.58861583096223
10
-86.116884481580982
20
153.34351172345677
10
-81.116884481580968
20
153.34351172345677
10
-81.116884481580968
20
143.09840761595129
10
-86.116884481580982
20
143.09840761595129
10
-86.116884481580982
20
132.85330350844586
10
-81.116884481580968
20
132.85330350844586
10
-81.116884481580968
20
122.60819940094041
10
-86.116884481580982
20
122.60819940094041
10
-86.116884481580982
20
112.36309529343517
10
-53.116884481580911
20
112.36309529343518
10
-53.116884481580968
20
122.60819940094055
10
-58.116884481580968
20
122.60819940094053
10
-58.116884481580968
20
132.85330350844595
10
-53.116884481580968
20
132.85330350844595
10
-53.116884481580968
20
143.0984076159514
10
-58.116884481580968
20
143.0984076159514
10
-58.116884481580968
20
153.34351172345686
10
-53.116884481580968
20
153.34351172345686
10
-53.116884481580968
20
163.58861583096231
10
-58.116884481580968
20
163.58861583096234
0
ENDSEC
0
SECTION
2
OBJECTS
0
DICTIONARY
5
C
100
AcDbDictionary
3
ACAD_GROUP
350
D
3
ACAD_MLINESTYLE
350
17
0
DICTIONARY
5
D
100
AcDbDictionary
0
DICTIONARY
5
1A
330
C
100
AcDbDictionary
0
DICTIONARY
5
17
100
AcDbDictionary
0
ENDSEC
0
EOF
