0
SECTION
2
HEADER
9
$INSUNITS
70
4
9
$ACADVER
1
AC1014
9
$HANDSEED
5
FFFF
0
ENDSEC
0
SECTION
2
TABLES
0
TABLE
2
VPORT
5
8
100
AcDbSymbolTable
0
ENDTAB
0
TABLE
2
LTYPE
5
5
100
AcDbSymbolTable
0
LTYPE
5
14
100
AcDbSymbolTableRecord
100
AcDbLinetypeTableRecord
2
BYBLOCK
70
0
0
LTYPE
5
15
100
AcDbSymbolTableRecord
100
AcDbLinetypeTableRecord
2
BYLAYER
70
0
0
LTYPE
5
16
100
AcDbSymbolTableRecord
100
AcDbLinetypeTableRecord
2
DASHED
70
0
3
Dashed __ __ __ __ __ __ __ __ __ __ __ __ __ _
72
65
73
2
40
0.75
49
0.5
74
0
49
-0.25
74
0
0
ENDTAB
0
TABLE
2
LAYER
5
2
100
AcDbSymbolTable
70
3
0
LAYER
5
50
100
AcDbSymbolTableRecord
100
AcDbLayerTableRecord
2
1
70
0
62
7
6
DASHED
0
LAYER
5
51
100
AcDbSymbolTableRecord
100
AcDbLayerTableRecord
2
0
70
0
62
7
6
CONTINUOUS
0
ENDTAB
0
TABLE
2
STYLE
5
3
100
AcDbSymbolTable
70
1
0
STYLE
5
11
100
AcDbSymbolTableRecord
100
AcDbTextStyleTableRecord
2
STANDARD
70
0
0
ENDTAB
0
TABLE
2
VIEW
5
6
100
AcDbSymbolTable
70
0
0
ENDTAB
0
TABLE
2
UCS
5
7
100
AcDbSymbolTable
70
0
0
ENDTAB
0
TABLE
2
APPID
5
9
100
AcDbSymbolTable
70
2
0
APPID
5
12
100
AcDbSymbolTableRecord
100
AcDbRegAppTableRecord
2
ACAD
70
0
0
ENDTAB
0
TABLE
2
DIMSTYLE
5
A
100
AcDbSymbolTable
70
1
0
ENDTAB
0
TABLE
2
BLOCK_RECORD
5
1
100
AcDbSymbolTable
70
1
0
BLOCK_RECORD
5
1F
100
AcDbSymbolTableRecord
100
AcDbBlockTableRecord
2
*MODEL_SPACE
0
BLOCK_RECORD
5
1B
100
AcDbSymbolTableRecord
100
AcDbBlockTableRecord
2
*PAPER_SPACE
0
ENDTAB
0
ENDSEC
0
SECTION
2
BLOCKS
0
BLOCK
5
20
100
AcDbEntity
100
AcDbBlockBegin
2
*MODEL_SPACE
0
ENDBLK
5
21
100
AcDbEntity
100
AcDbBlockEnd
0
BLOCK
5
1C
100
AcDbEntity
100
AcDbBlockBegin
2
*PAPER_SPACE
0
ENDBLK
5
1D
100
AcDbEntity
100
AcDbBlockEnd
0
ENDSEC
0
SECTION
2
ENTITIES
0
LWPOLYLINE
5
100
100
AcDbEntity
8
0
100
AcDbPolyline
90
4
70
1
43
0.0
10
-72.116884481579916
20
420.92824083153221
10
-67.116884481579916
20
420.92824083153221
10
-67.116884481579916
20
415.29372104057052
10
-72.116884481579916
20
415.29372104057052
0
LWPOLYLINE
5
101
100
AcDbEntity
8
0
100
AcDbPolyline
90
4
70
1
43
0.0
10
-72.116884481579916
20
432.19728041345542
10
-67.116884481579916
20
432.19728041345542
10
-67.116884481579916
20
426.56276062249378
10
-72.116884481579916
20
426.56276062249378
0
LWPOLYLINE
5
102
100
AcDbEntity
8
0
100
AcDbPolyline
90
4
70
1
43
0.0
10
-72.116884481579916
20
443.46631999537868
10
-67.116884481579916
20
443.46631999537868
10
-67.116884481579916
20
437.83180020441705
10
-72.116884481579916
20
437.83180020441705
0
LWPOLYLINE
5
103
100
AcDbEntity
8
0
100
AcDbPolyline
90
4
70
1
43
0.0
10
-72.116884481579916
20
454.73535957730189
10
-67.116884481579916
20
454.73535957730189
10
-67.116884481579916
20
449.10083978634026
10
-72.116884481579916
20
449.10083978634026
0
LWPOLYLINE
5
104
100
AcDbEntity
8
0
100
AcDbPolyline
90
4
70
1
43
0.0
10
-125.00577337046985
20
486.40541327419641
10
-125.00577337046985
20
481.40541327419641
10
-130.5613289260254
20
481.40541327419641
10
-130.5613289260254
20
486.40541327419641
0
LWPOLYLINE
5
105
100
AcDbEntity
8
0
100
AcDbPolyline
90
4
70
1
43
0.0
10
-113.89466225935874
20
486.40541327419641
10
-113.89466225935874
20
481.40541327419641
10
-119.45021781491431
20
481.40541327419641
10
-119.45021781491431
20
486.40541327419641
0
LWPOLYLINE
5
106
100
AcDbEntity
8
0
100
AcDbPolyline
90
4
70
1
43
0.0
10
-102.78355114824762
20
486.40541327419641
10
-102.78355114824762
20
481.40541327419641
10
-108.3391067038032
20
481.40541327419641
10
-108.3391067038032
20
486.40541327419641
0
LWPOLYLINE
5
107
100
AcDbEntity
8
0
100
AcDbPolyline
90
4
70
1
43
0.0
10
-91.672440037136511
20
486.40541327419641
10
-91.672440037136511
20
481.40541327419641
10
-97.227995592692068
20
481.40541327419641
10
-97.227995592692068
20
486.40541327419641
0
LWPOLYLINE
5
108
100
AcDbEntity
8
0
100
AcDbPolyline
90
4
70
1
43
0.0
10
-86.116884481580968
20
475.33398470276785
10
-81.116884481580968
20
475.33398470276785
10
-81.116884481580968
20
469.61969898848213
10
-86.116884481580968
20
469.61969898848213
0
LWPOLYLINE
5
109
100
AcDbEntity
8
0
100
AcDbPolyline
90
4
70
1
43
0.0
10
-86.116884481580968
20
486.76255613133924
10
-81.116884481580968
20
486.76255613133924
10
-81.116884481580968
20
481.04827041705357
10
-86.116884481580968
20
481.04827041705357
0
LWPOLYLINE
5
110
100
AcDbEntity
8
0
100
AcDbPolyline
90
4
70
1
43
0.0
10
-86.116884481580968
20
498.19112755991068
10
-81.116884481580968
20
498.19112755991068
10
-81.116884481580968
20
492.47684184562496
10
-86.116884481580968
20
492.47684184562496
0
LWPOLYLINE
5
111
100
AcDbEntity
8
0
100
AcDbPolyline
90
4
70
1
43
0.0
10
80.383115518419032
20
648.90541327419646
10
-219.61688448158097
20
648.90541327419646
10
-219.61688448158097
20
-51.094586725803595
10
80.383115518419032
20
-51.094586725803595
0
LWPOLYLINE
5
112
100
AcDbEntity
8
0
100
AcDbPolyline
90
4
70
1
43
0.0
10
-53.116884481580954
20
469.61969898848213
10
-58.116884481580954
20
469.61969898848213
10
-58.116884481580954
20
475.33398470276785
10
-53.116884481580954
20
475.33398470276785
0
LWPOLYLINE
5
113
100
AcDbEntity
8
0
100
AcDbPolyline
90
4
70
1
43
0.0
10
-53.116884481580954
20
481.04827041705357
10
-58.116884481580954
20
481.04827041705357
10
-58.116884481580954
20
486.76255613133924
10
-53.116884481580954
20
486.76255613133924
0
LWPOLYLINE
5
114
100
AcDbEntity
8
0
100
AcDbPolyline
90
4
70
1
43
0.0
10
-53.116884481580954
20
492.47684184562496
10
-58.116884481580954
20
492.47684184562496
10
-58.116884481580954
20
498.19112755991068
10
-53.116884481580954
20
498.19112755991068
0
ENDSEC
0
SECTION
2
OBJECTS
0
DICTIONARY
5
C
100
AcDbDictionary
3
ACAD_GROUP
350
D
3
ACAD_MLINESTYLE
350
17
0
DICTIONARY
5
D
100
AcDbDictionary
0
DICTIONARY
5
1A
330
C
100
AcDbDictionary
0
DICTIONARY
5
17
100
AcDbDictionary
0
ENDSEC
0
EOF
