0
SECTION
2
HEADER
9
$INSUNITS
70
4
9
$ACADVER
1
AC1014
9
$HANDSEED
5
FFFF
0
ENDSEC
0
SECTION
2
TABLES
0
TABLE
2
VPORT
5
8
100
AcDbSymbolTable
0
ENDTAB
0
TABLE
2
LTYPE
5
5
100
AcDbSymbolTable
0
LTYPE
5
14
100
AcDbSymbolTableRecord
100
AcDbLinetypeTableRecord
2
BYBLOCK
70
0
0
LTYPE
5
15
100
AcDbSymbolTableRecord
100
AcDbLinetypeTableRecord
2
BYLAYER
70
0
0
LTYPE
5
16
100
AcDbSymbolTableRecord
100
AcDbLinetypeTableRecord
2
DASHED
70
0
3
Dashed __ __ __ __ __ __ __ __ __ __ __ __ __ _
72
65
73
2
40
0.75
49
0.5
74
0
49
-0.25
74
0
0
ENDTAB
0
TABLE
2
LAYER
5
2
100
AcDbSymbolTable
70
3
0
LAYER
5
50
100
AcDbSymbolTableRecord
100
AcDbLayerTableRecord
2
1
70
0
62
7
6
DASHED
0
LAYER
5
51
100
AcDbSymbolTableRecord
100
AcDbLayerTableRecord
2
0
70
0
62
7
6
CONTINUOUS
0
ENDTAB
0
TABLE
2
STYLE
5
3
100
AcDbSymbolTable
70
1
0
STYLE
5
11
100
AcDbSymbolTableRecord
100
AcDbTextStyleTableRecord
2
STANDARD
70
0
0
ENDTAB
0
TABLE
2
VIEW
5
6
100
AcDbSymbolTable
70
0
0
ENDTAB
0
TABLE
2
UCS
5
7
100
AcDbSymbolTable
70
0
0
ENDTAB
0
TABLE
2
APPID
5
9
100
AcDbSymbolTable
70
2
0
APPID
5
12
100
AcDbSymbolTableRecord
100
AcDbRegAppTableRecord
2
ACAD
70
0
0
ENDTAB
0
TABLE
2
DIMSTYLE
5
A
100
AcDbSymbolTable
70
1
0
ENDTAB
0
TABLE
2
BLOCK_RECORD
5
1
100
AcDbSymbolTable
70
1
0
BLOCK_RECORD
5
1F
100
AcDbSymbolTableRecord
100
AcDbBlockTableRecord
2
*MODEL_SPACE
0
BLOCK_RECORD
5
1B
100
AcDbSymbolTableRecord
100
AcDbBlockTableRecord
2
*PAPER_SPACE
0
ENDTAB
0
ENDSEC
0
SECTION
2
BLOCKS
0
BLOCK
5
20
100
AcDbEntity
100
AcDbBlockBegin
2
*MODEL_SPACE
0
ENDBLK
5
21
100
AcDbEntity
100
AcDbBlockEnd
0
BLOCK
5
1C
100
AcDbEntity
100
AcDbBlockBegin
2
*PAPER_SPACE
0
ENDBLK
5
1D
100
AcDbEntity
100
AcDbBlockEnd
0
ENDSEC
0
SECTION
2
ENTITIES
0
LWPOLYLINE
5
100
100
AcDbEntity
8
0
100
AcDbPolyline
90
44
70
1
43
0.0
10
-137.44094718012923
20
4.9999999999999805
10
-137.44094718012923
20
21.464466094067273
10
-141.34176857387189
20
25.365287487809912
10
-137.80623466793912
20
28.900821393742703
10
-141.70705606168178
20
32.80164278748537
10
-145.24258996761461
20
29.26610888155259
10
-149.14341136135727
20
33.166930275295258
10
-145.6078774554245
20
36.702464181228052
10
-149.50869884916713
20
40.60328557497072
10
-153.0442327550999
20
37.067751669037932
10
-156.94505414884262
20
40.9685730627806
10
-153.40952024290976
20
44.504106968713387
10
-157.31034163665248
20
48.404928362456062
10
-160.84587554258525
20
44.869394456523267
10
-164.74669693632791
20
48.770215850265934
10
-161.21116303039514
20
52.305749756198729
10
-165.11198442413786
20
56.206571149941396
10
-168.64751833007062
20
52.671037244008609
10
-172.54833972381329
20
56.571858637751276
10
-169.01280581788052
20
60.107392543684064
10
-172.91362721162315
20
64.008213937426731
10
-176.449161117556
20
60.472680031493951
10
-180.34998251129863
20
64.373501425236611
10
-176.81444860536587
20
67.909035331169406
10
-180.7152699991085
20
71.809856724912066
10
-184.25080390504127
20
68.274322818979286
10
-188.15162529878393
20
72.175144212722032
10
-188.15162529878393
20
4.9999999999999911
10
-182.51710550782229
20
4.9999999999999858
10
-182.51710550782229
20
-1.4432899320127035e-14
10
-176.88258571686063
20
-1.4911482467876048e-14
10
-176.88258571686063
20
4.9999999999999849
10
-171.24806592589906
20
4.999999999999984
10
-171.24806592589906
20
-1.5543122344752192e-14
10
-165.61354613493739
20
-1.6291541793222756e-14
10
-165.61354613493739
20
4.999999999999984
10
-159.97902634397576
20
4.9999999999999831
10
-159.97902634397576
20
-1.7208456881689926e-14
10
-154.34450655301413
20
-1.7671601118569471e-14
10
-154.34450655301413
20
4.9999999999999822
10
-148.70998676205255
20
4.9999999999999813
10
-148.70998676205255
20
-1.8318679906315083e-14
10
-143.07546697109089
20
-1.9051660443916186e-14
10
-143.07546697109089
20
4.9999999999999813
0
ENDSEC
0
SECTION
2
OBJECTS
0
DICTIONARY
5
C
100
AcDbDictionary
3
ACAD_GROUP
350
D
3
ACAD_MLINESTYLE
350
17
0
DICTIONARY
5
D
100
AcDbDictionary
0
DICTIONARY
5
1A
330
C
100
AcDbDictionary
0
DICTIONARY
5
17
100
AcDbDictionary
0
ENDSEC
0
EOF
