0
SECTION
2
HEADER
9
$INSUNITS
70
4
9
$ACADVER
1
AC1014
9
$HANDSEED
5
FFFF
0
ENDSEC
0
SECTION
2
TABLES
0
TABLE
2
VPORT
5
8
100
AcDbSymbolTable
0
ENDTAB
0
TABLE
2
LTYPE
5
5
100
AcDbSymbolTable
0
LTYPE
5
14
100
AcDbSymbolTableRecord
100
AcDbLinetypeTableRecord
2
BYBLOCK
70
0
0
LTYPE
5
15
100
AcDbSymbolTableRecord
100
AcDbLinetypeTableRecord
2
BYLAYER
70
0
0
LTYPE
5
16
100
AcDbSymbolTableRecord
100
AcDbLinetypeTableRecord
2
DASHED
70
0
3
Dashed __ __ __ __ __ __ __ __ __ __ __ __ __ _
72
65
73
2
40
0.75
49
0.5
74
0
49
-0.25
74
0
0
ENDTAB
0
TABLE
2
LAYER
5
2
100
AcDbSymbolTable
70
3
0
LAYER
5
50
100
AcDbSymbolTableRecord
100
AcDbLayerTableRecord
2
1
70
0
62
7
6
DASHED
0
LAYER
5
51
100
AcDbSymbolTableRecord
100
AcDbLayerTableRecord
2
0
70
0
62
7
6
CONTINUOUS
0
ENDTAB
0
TABLE
2
STYLE
5
3
100
AcDbSymbolTable
70
1
0
STYLE
5
11
100
AcDbSymbolTableRecord
100
AcDbTextStyleTableRecord
2
STANDARD
70
0
0
ENDTAB
0
TABLE
2
VIEW
5
6
100
AcDbSymbolTable
70
0
0
ENDTAB
0
TABLE
2
UCS
5
7
100
AcDbSymbolTable
70
0
0
ENDTAB
0
TABLE
2
APPID
5
9
100
AcDbSymbolTable
70
2
0
APPID
5
12
100
AcDbSymbolTableRecord
100
AcDbRegAppTableRecord
2
ACAD
70
0
0
ENDTAB
0
TABLE
2
DIMSTYLE
5
A
100
AcDbSymbolTable
70
1
0
ENDTAB
0
TABLE
2
BLOCK_RECORD
5
1
100
AcDbSymbolTable
70
1
0
BLOCK_RECORD
5
1F
100
AcDbSymbolTableRecord
100
AcDbBlockTableRecord
2
*MODEL_SPACE
0
BLOCK_RECORD
5
1B
100
AcDbSymbolTableRecord
100
AcDbBlockTableRecord
2
*PAPER_SPACE
0
ENDTAB
0
ENDSEC
0
SECTION
2
BLOCKS
0
BLOCK
5
20
100
AcDbEntity
100
AcDbBlockBegin
2
*MODEL_SPACE
0
ENDBLK
5
21
100
AcDbEntity
100
AcDbBlockEnd
0
BLOCK
5
1C
100
AcDbEntity
100
AcDbBlockBegin
2
*PAPER_SPACE
0
ENDBLK
5
1D
100
AcDbEntity
100
AcDbBlockEnd
0
ENDSEC
0
SECTION
2
ENTITIES
0
LWPOLYLINE
5
100
100
AcDbEntity
8
0
100
AcDbPolyline
90
4
70
1
43
0.0
10
-486.40541327419641
20
16.111111111111107
10
-481.40541327419641
20
16.111111111111107
10
-481.40541327419641
20
10.555555555555554
10
-486.40541327419641
20
10.555555555555554
0
LWPOLYLINE
5
101
100
AcDbEntity
8
0
100
AcDbPolyline
90
4
70
1
43
0.0
10
-486.40541327419641
20
27.222222222222221
10
-481.40541327419641
20
27.222222222222221
10
-481.40541327419641
20
21.666666666666671
10
-486.40541327419641
20
21.666666666666671
0
LWPOLYLINE
5
102
100
AcDbEntity
8
0
100
AcDbPolyline
90
4
70
1
43
0.0
10
-486.40541327419641
20
38.333333333333329
10
-481.40541327419641
20
38.333333333333329
10
-481.40541327419641
20
32.777777777777779
10
-486.40541327419641
20
32.777777777777779
0
LWPOLYLINE
5
103
100
AcDbEntity
8
0
100
AcDbPolyline
90
4
70
1
43
0.0
10
-486.40541327419641
20
49.444444444444443
10
-481.40541327419641
20
49.444444444444443
10
-481.40541327419641
20
43.888888888888893
10
-486.40541327419641
20
43.888888888888893
0
LWPOLYLINE
5
104
100
AcDbEntity
8
0
100
AcDbPolyline
90
42
70
1
43
0.0
10
-503.90541327419641
20
5
10
-498.19112755991068
20
5
10
-498.19112755991068
20
0
10
-492.47684184562496
20
0
10
-492.47684184562496
20
5
10
-486.76255613133924
20
5
10
-486.76255613133924
20
0
10
-481.04827041705357
20
0
10
-481.04827041705357
20
5
10
-475.33398470276785
20
5
10
-475.33398470276785
20
0
10
-469.61969898848213
20
0
10
-469.61969898848213
20
5
10
-463.90541327419641
20
5
10
-463.90541327419641
20
25
10
-456.66103068581742
20
32.244382588379324
10
-453.12549677988432
20
28.708848682446238
10
-445.88111419150505
20
35.953231270825533
10
-449.41664809743821
20
39.488765176758612
10
-442.172265509059
20
46.733147765137879
10
-438.6367316031259
20
43.1976138592048
10
-431.39234901474663
20
50.441996447584081
10
-434.92788292067974
20
53.97753035351716
10
-427.68350033230047
20
61.221912941896449
10
-424.14796642636736
20
57.68637903596337
10
-416.90358383798815
20
64.930761624342665
10
-420.43911774392132
20
68.466295530275744
10
-413.19473515554159
20
75.710678118654755
10
-554.6160913928511
20
75.710678118654741
10
-547.37170880447184
20
68.466295530275673
10
-550.90724271040483
20
64.93076162434275
10
-543.66286012202568
20
57.686379035963469
10
-540.12732621609268
20
61.221912941896399
10
-532.88294362771342
20
53.977530353517118
10
-536.41847753364641
20
50.441996447584188
10
-529.17409494526726
20
43.197613859204907
10
-525.63856103933426
20
46.733147765137836
10
-518.394178450955
20
39.488765176758562
10
-521.92971235688799
20
35.95323127082564
10
-514.68532976850872
20
28.708848682446359
10
-511.14979586257584
20
32.244382588379281
10
-503.90541327419641
20
25
0
LWPOLYLINE
5
105
100
AcDbEntity
8
0
100
AcDbPolyline
90
4
70
1
43
0.0
10
-116.40541327419641
20
16.111111111111086
10
-111.40541327419641
20
16.111111111111086
10
-111.40541327419641
20
10.555555555555532
10
-116.40541327419641
20
10.555555555555532
0
LWPOLYLINE
5
106
100
AcDbEntity
8
0
100
AcDbPolyline
90
4
70
1
43
0.0
10
-116.40541327419641
20
27.2222222222222
10
-111.40541327419641
20
27.2222222222222
10
-111.40541327419641
20
21.666666666666647
10
-116.40541327419641
20
21.666666666666647
0
LWPOLYLINE
5
107
100
AcDbEntity
8
0
100
AcDbPolyline
90
4
70
1
43
0.0
10
-116.40541327419641
20
38.333333333333307
10
-111.40541327419641
20
38.333333333333307
10
-111.40541327419641
20
32.777777777777757
10
-116.40541327419641
20
32.777777777777757
0
LWPOLYLINE
5
108
100
AcDbEntity
8
0
100
AcDbPolyline
90
4
70
1
43
0.0
10
-116.40541327419641
20
49.444444444444422
10
-111.40541327419641
20
49.444444444444422
10
-111.40541327419641
20
43.888888888888864
10
-116.40541327419641
20
43.888888888888864
0
LWPOLYLINE
5
109
100
AcDbEntity
8
0
100
AcDbPolyline
90
42
70
1
43
0.0
10
-99.619698988482099
20
4.9999999999999751
10
-93.905413274196405
20
4.9999999999999751
10
-93.905413274196405
20
24.999999999999972
10
-86.661030685816982
20
32.244382588379253
10
-83.125496779884074
20
28.708848682446334
10
-75.881114191504864
20
35.953231270825611
10
-79.416648097437772
20
39.488765176758534
10
-72.172265509058562
20
46.733147765137808
10
-68.636731603125583
20
43.197613859204878
10
-61.392349014746372
20
50.44199644758416
10
-64.927882920679352
20
53.977530353517089
10
-57.683500332300142
20
61.22191294189637
10
-54.147966426367162
20
57.686379035963441
10
-46.903583837987952
20
64.930761624342708
10
-50.439117743920932
20
68.46629553027563
10
-43.19473515554165
20
75.710678118654712
10
-184.61609139285122
20
75.710678118654741
10
-177.37170880447152
20
68.466295530275715
10
-180.90724271040466
20
64.930761624342651
10
-173.66286012202545
20
57.686379035963355
10
-170.12732621609231
20
61.221912941896434
10
-162.8829436277131
20
53.977530353517139
10
-166.41847753364615
20
50.441996447584067
10
-159.17409494526694
20
43.197613859204786
10
-155.63856103933381
20
46.733147765137858
10
-148.3941784509546
20
39.488765176758591
10
-151.92971235688773
20
35.953231270825519
10
-144.68532976850852
20
28.708848682446224
10
-141.14979586257539
20
32.244382588379295
10
-133.90541327419641
20
24.999999999999979
10
-133.90541327419641
20
4.9999999999999805
10
-128.19112755991071
20
4.9999999999999787
10
-128.19112755991071
20
-2.1094237467877974e-14
10
-122.47684184562495
20
-2.1574264476589999e-14
10
-122.47684184562495
20
4.9999999999999787
10
-116.76255613133925
20
4.9999999999999778
10
-116.76255613133925
20
-2.2204460492503131e-14
10
-111.04827041705356
20
-2.2973860818472675e-14
10
-111.04827041705356
20
4.9999999999999769
10
-105.33398470276786
20
4.999999999999976
10
-105.33398470276786
20
-2.3869795029440866e-14
10
-99.619698988482099
20
-2.4373457160355376e-14
0
ENDSEC
0
SECTION
2
OBJECTS
0
DICTIONARY
5
C
100
AcDbDictionary
3
ACAD_GROUP
350
D
3
ACAD_MLINESTYLE
350
17
0
DICTIONARY
5
D
100
AcDbDictionary
0
DICTIONARY
5
1A
330
C
100
AcDbDictionary
0
DICTIONARY
5
17
100
AcDbDictionary
0
ENDSEC
0
EOF
