0
SECTION
2
HEADER
9
$INSUNITS
70
4
9
$ACADVER
1
AC1014
9
$HANDSEED
5
FFFF
0
ENDSEC
0
SECTION
2
TABLES
0
TABLE
2
VPORT
5
8
100
AcDbSymbolTable
0
ENDTAB
0
TABLE
2
LTYPE
5
5
100
AcDbSymbolTable
0
LTYPE
5
14
100
AcDbSymbolTableRecord
100
AcDbLinetypeTableRecord
2
BYBLOCK
70
0
0
LTYPE
5
15
100
AcDbSymbolTableRecord
100
AcDbLinetypeTableRecord
2
BYLAYER
70
0
0
ENDTAB
0
TABLE
2
LAYER
5
2
100
AcDbSymbolTable
70
2
0
LAYER
5
50
100
AcDbSymbolTableRecord
100
AcDbLayerTableRecord
2
0
70
0
6
CONTINUOUS
0
ENDTAB
0
TABLE
2
STYLE
5
3
100
AcDbSymbolTable
70
1
0
STYLE
5
11
100
AcDbSymbolTableRecord
100
AcDbTextStyleTableRecord
2
STANDARD
70
0
0
ENDTAB
0
TABLE
2
VIEW
5
6
100
AcDbSymbolTable
70
0
0
ENDTAB
0
TABLE
2
UCS
5
7
100
AcDbSymbolTable
70
0
0
ENDTAB
0
TABLE
2
APPID
5
9
100
AcDbSymbolTable
70
2
0
APPID
5
12
100
AcDbSymbolTableRecord
100
AcDbRegAppTableRecord
2
ACAD
70
0
0
ENDTAB
0
TABLE
2
DIMSTYLE
5
A
100
AcDbSymbolTable
70
1
0
ENDTAB
0
TABLE
2
BLOCK_RECORD
5
1
100
AcDbSymbolTable
70
1
0
BLOCK_RECORD
5
1F
100
AcDbSymbolTableRecord
100
AcDbBlockTableRecord
2
*MODEL_SPACE
0
BLOCK_RECORD
5
1B
100
AcDbSymbolTableRecord
100
AcDbBlockTableRecord
2
*PAPER_SPACE
0
ENDTAB
0
ENDSEC
0
SECTION
2
BLOCKS
0
BLOCK
5
20
100
AcDbEntity
100
AcDbBlockBegin
2
*MODEL_SPACE
0
ENDBLK
5
21
100
AcDbEntity
100
AcDbBlockEnd
0
BLOCK
5
1C
100
AcDbEntity
100
AcDbBlockBegin
2
*PAPER_SPACE
0
ENDBLK
5
1D
100
AcDbEntity
100
AcDbBlockEnd
0
ENDSEC
0
SECTION
2
ENTITIES
0
LWPOLYLINE
5
100
100
AcDbEntity
8
0
100
AcDbPolyline
90
4
70
1
43
0.0
10
79.999999999999957
20
-5
10
74.999999999999972
20
-5
10
74.999999999999972
20
5
10
79.999999999999957
20
5
0
LWPOLYLINE
5
101
100
AcDbEntity
8
0
100
AcDbPolyline
90
68
70
1
43
0.0
10
95.207373592216157
20
-15
10
105.62746066806224
20
-15
10
105.62746066806224
20
15
10
95.207373592216157
20
15
10
95.207373592216157
20
20
10
84.787286516370102
20
20
10
84.787286516370102
20
15
10
74.367199440524047
20
15
10
74.367199440524047
20
20
10
63.947112364677984
20
20
10
63.947112364677984
20
15
10
53.527025288831929
20
15
10
53.527025288831929
20
20
10
43.10693821298586
20
20
10
43.10693821298586
20
15
10
32.68685113713979
20
15
10
32.68685113713979
20
20
10
22.266764061293717
20
20
10
22.266764061293717
20
15
10
11.846676985447665
20
15
10
11.846676985447669
20
20
10
1.4265899096016077
20
20
10
1.4265899096016068
20
15
10
-8.9934971662444454
20
15
10
-8.9934971662444454
20
20
10
-19.413584242090515
20
20
10
-19.413584242090515
20
15
10
-29.833671317936581
20
15
10
-29.833671317936584
20
20
10
-40.253758393782668
20
20
10
-40.253758393782661
20
15
10
-50.673845469628709
20
15
10
-50.673845469628709
20
20
10
-61.093932545474779
20
20
10
-61.093932545474779
20
15
10
-71.514019621320841
20
15
10
-71.514019621320841
20
-15
10
-61.093932545474772
20
-15
10
-61.093932545474772
20
-20
10
-50.673845469628709
20
-20
10
-50.673845469628709
20
-15
10
-40.25375839378264
20
-15
10
-40.25375839378264
20
-20
10
-29.833671317936581
20
-20
10
-29.833671317936584
20
-15
10
-19.413584242090526
20
-15
10
-19.413584242090522
20
-20
10
-8.9934971662444614
20
-20
10
-8.9934971662444632
20
-15
10
1.4265899096016066
20
-15
10
1.4265899096016068
20
-20
10
11.846676985447669
20
-20
10
11.846676985447669
20
-15
10
22.266764061293721
20
-15
10
22.266764061293717
20
-20
10
32.68685113713979
20
-20
10
32.68685113713979
20
-15
10
43.106938212985852
20
-15
10
43.10693821298586
20
-20
10
53.527025288831915
20
-20
10
53.527025288831915
20
-15
10
63.947112364677999
20
-15
10
63.947112364677999
20
-20
10
74.367199440524047
20
-20
10
74.367199440524047
20
-15
10
84.787286516370102
20
-15
10
84.787286516370102
20
-20
10
95.207373592216157
20
-20
0
LWPOLYLINE
5
102
100
AcDbEntity
8
0
100
AcDbPolyline
90
4
70
1
43
0.0
10
-7.1269623106411007e-14
20
-5
10
-5.0000000000000693
20
-5
10
-5.0000000000000693
20
5
10
-7.1609385088322597e-14
20
5
0
ENDSEC
0
SECTION
2
OBJECTS
0
DICTIONARY
5
C
100
AcDbDictionary
3
ACAD_GROUP
350
D
3
ACAD_MLINESTYLE
350
17
0
DICTIONARY
5
D
100
AcDbDictionary
0
DICTIONARY
5
1A
330
C
100
AcDbDictionary
0
DICTIONARY
5
17
100
AcDbDictionary
0
ENDSEC
0
EOF
