0
SECTION
2
HEADER
9
$INSUNITS
70
4
9
$ACADVER
1
AC1014
9
$HANDSEED
5
FFFF
0
ENDSEC
0
SECTION
2
TABLES
0
TABLE
2
VPORT
5
8
100
AcDbSymbolTable
0
ENDTAB
0
TABLE
2
LTYPE
5
5
100
AcDbSymbolTable
0
LTYPE
5
14
100
AcDbSymbolTableRecord
100
AcDbLinetypeTableRecord
2
BYBLOCK
70
0
0
LTYPE
5
15
100
AcDbSymbolTableRecord
100
AcDbLinetypeTableRecord
2
BYLAYER
70
0
0
ENDTAB
0
TABLE
2
LAYER
5
2
100
AcDbSymbolTable
70
2
0
LAYER
5
50
100
AcDbSymbolTableRecord
100
AcDbLayerTableRecord
2
0
70
0
6
CONTINUOUS
0
ENDTAB
0
TABLE
2
STYLE
5
3
100
AcDbSymbolTable
70
1
0
STYLE
5
11
100
AcDbSymbolTableRecord
100
AcDbTextStyleTableRecord
2
STANDARD
70
0
0
ENDTAB
0
TABLE
2
VIEW
5
6
100
AcDbSymbolTable
70
0
0
ENDTAB
0
TABLE
2
UCS
5
7
100
AcDbSymbolTable
70
0
0
ENDTAB
0
TABLE
2
APPID
5
9
100
AcDbSymbolTable
70
2
0
APPID
5
12
100
AcDbSymbolTableRecord
100
AcDbRegAppTableRecord
2
ACAD
70
0
0
ENDTAB
0
TABLE
2
DIMSTYLE
5
A
100
AcDbSymbolTable
70
1
0
ENDTAB
0
TABLE
2
BLOCK_RECORD
5
1
100
AcDbSymbolTable
70
1
0
BLOCK_RECORD
5
1F
100
AcDbSymbolTableRecord
100
AcDbBlockTableRecord
2
*MODEL_SPACE
0
BLOCK_RECORD
5
1B
100
AcDbSymbolTableRecord
100
AcDbBlockTableRecord
2
*PAPER_SPACE
0
ENDTAB
0
ENDSEC
0
SECTION
2
BLOCKS
0
BLOCK
5
20
100
AcDbEntity
100
AcDbBlockBegin
2
*MODEL_SPACE
0
ENDBLK
5
21
100
AcDbEntity
100
AcDbBlockEnd
0
BLOCK
5
1C
100
AcDbEntity
100
AcDbBlockBegin
2
*PAPER_SPACE
0
ENDBLK
5
1D
100
AcDbEntity
100
AcDbBlockEnd
0
ENDSEC
0
SECTION
2
ENTITIES
0
LWPOLYLINE
5
100
100
AcDbEntity
8
0
100
AcDbPolyline
90
44
70
1
43
0.0
10
20
20
99.336073618264535
10
15
20
99.336073618264535
10
15
20
110.48463771508523
10
20
20
110.48463771508524
10
20
20
121.63320181190593
10
15
20
121.63320181190596
10
15
20
132.7817659087267
10
20
20
132.78176590872667
10
20
20
143.93033000554735
10
15
20
143.93033000554738
10
15
20
155.07889410236808
10
20
20
155.07889410236805
10
20
20
166.22745819918876
10
15
20
166.22745819918879
10
15
20
177.37602229600949
10
20
20
177.37602229600949
10
20
20
188.52458639283017
10
15
20
188.52458639283017
10
15
20
199.67315048965091
10
20
20
199.67315048965091
10
20
20
210.82171458647156
10
-20
20
210.82171458647161
10
-20
20
199.67315048965094
10
-15
20
199.67315048965091
10
-15
20
188.5245863928302
10
-20
20
188.5245863928302
10
-20
20
177.37602229600949
10
-15
20
177.37602229600949
10
-15
20
166.22745819918879
10
-20
20
166.22745819918885
10
-20
20
155.07889410236811
10
-15
20
155.07889410236805
10
-15
20
143.93033000554738
10
-20
20
143.93033000554738
10
-20
20
132.78176590872667
10
-15
20
132.78176590872667
10
-15
20
121.63320181190599
10
-20
20
121.63320181190599
10
-20
20
110.48463771508526
10
-15
20
110.48463771508526
10
-15
20
99.336073618264578
10
-20
20
99.336073618264578
10
-20
20
88.187509521443843
10
20
20
88.187509521443843
0
ENDSEC
0
SECTION
2
OBJECTS
0
DICTIONARY
5
C
100
AcDbDictionary
3
ACAD_GROUP
350
D
3
ACAD_MLINESTYLE
350
17
0
DICTIONARY
5
D
100
AcDbDictionary
0
DICTIONARY
5
1A
330
C
100
AcDbDictionary
0
DICTIONARY
5
17
100
AcDbDictionary
0
ENDSEC
0
EOF
