0
SECTION
2
HEADER
9
$INSUNITS
70
4
9
$ACADVER
1
AC1014
9
$HANDSEED
5
FFFF
0
ENDSEC
0
SECTION
2
TABLES
0
TABLE
2
VPORT
5
8
100
AcDbSymbolTable
0
ENDTAB
0
TABLE
2
LTYPE
5
5
100
AcDbSymbolTable
0
LTYPE
5
14
100
AcDbSymbolTableRecord
100
AcDbLinetypeTableRecord
2
BYBLOCK
70
0
0
LTYPE
5
15
100
AcDbSymbolTableRecord
100
AcDbLinetypeTableRecord
2
BYLAYER
70
0
0
ENDTAB
0
TABLE
2
LAYER
5
2
100
AcDbSymbolTable
70
2
0
LAYER
5
50
100
AcDbSymbolTableRecord
100
AcDbLayerTableRecord
2
0
70
0
6
CONTINUOUS
0
ENDTAB
0
TABLE
2
STYLE
5
3
100
AcDbSymbolTable
70
1
0
STYLE
5
11
100
AcDbSymbolTableRecord
100
AcDbTextStyleTableRecord
2
STANDARD
70
0
0
ENDTAB
0
TABLE
2
VIEW
5
6
100
AcDbSymbolTable
70
0
0
ENDTAB
0
TABLE
2
UCS
5
7
100
AcDbSymbolTable
70
0
0
ENDTAB
0
TABLE
2
APPID
5
9
100
AcDbSymbolTable
70
2
0
APPID
5
12
100
AcDbSymbolTableRecord
100
AcDbRegAppTableRecord
2
ACAD
70
0
0
ENDTAB
0
TABLE
2
DIMSTYLE
5
A
100
AcDbSymbolTable
70
1
0
ENDTAB
0
TABLE
2
BLOCK_RECORD
5
1
100
AcDbSymbolTable
70
1
0
BLOCK_RECORD
5
1F
100
AcDbSymbolTableRecord
100
AcDbBlockTableRecord
2
*MODEL_SPACE
0
BLOCK_RECORD
5
1B
100
AcDbSymbolTableRecord
100
AcDbBlockTableRecord
2
*PAPER_SPACE
0
ENDTAB
0
ENDSEC
0
SECTION
2
BLOCKS
0
BLOCK
5
20
100
AcDbEntity
100
AcDbBlockBegin
2
*MODEL_SPACE
0
ENDBLK
5
21
100
AcDbEntity
100
AcDbBlockEnd
0
BLOCK
5
1C
100
AcDbEntity
100
AcDbBlockBegin
2
*PAPER_SPACE
0
ENDBLK
5
1D
100
AcDbEntity
100
AcDbBlockEnd
0
ENDSEC
0
SECTION
2
ENTITIES
0
LWPOLYLINE
5
100
100
AcDbEntity
8
0
100
AcDbPolyline
90
45
70
1
43
0.0
10
45.000000000000028
20
125.00000000000003
10
-20.000000000000007
20
125.00000000000013
10
-20.000000000000007
20
65.000000000000085
10
-29.83367131793652
20
65.000000000000028
10
-29.833671317936528
20
60.000000000000028
10
-40.253758393782597
20
60.000000000000036
10
-40.253758393782597
20
65.000000000000028
10
-50.673845469628645
20
65.000000000000057
10
-50.673845469628645
20
60.000000000000057
10
-61.093932545474715
20
60.000000000000064
10
-61.093932545474715
20
65.000000000000057
10
-71.514019621320784
20
65.000000000000071
10
-76.096169372573755
20
62.999024323713073
10
-80.557770489226755
20
73.215902364328016
10
-75.97562073797377
20
75.216878040615029
10
-80.43722185462677
20
85.433756081230001
10
-85.019371605879741
20
83.432780404942989
10
-89.480972722532755
20
93.649658445557961
10
-84.89882297127977
20
95.650634121844973
10
-89.360424087932785
20
105.86751216245995
10
-93.942573839185741
20
103.86653648617292
10
-98.404174955838769
20
114.08341452678791
10
-93.822025204585785
20
116.08439020307492
10
-98.283626321238785
20
126.30126824368989
10
-102.86577607249177
20
124.30029256740286
10
-107.32737718914477
20
134.51717060801784
10
-102.74522743789178
20
136.51814628430486
10
-107.20682855454481
20
146.73502432491983
10
-111.78897830579777
20
144.73404864863281
10
-116.25057942245078
20
154.95092668924775
10
-111.6684296711978
20
156.95190236553481
10
-116.13003078785081
20
167.16878040614978
10
-120.71218053910378
20
165.16780472986278
10
-125.17378165575678
20
175.3846827704777
10
-120.73538784170762
20
177.32288177003392
10
-113.94585115341502
20
191.88309018513112
10
45.000000000000036
20
191.88309018513098
10
45.000000000000036
20
196.23196492349521
10
50.000000000000036
20
196.23196492349521
10
50.000000000000036
20
185.58083966185939
10
45.000000000000036
20
185.58083966185939
10
45.000000000000036
20
174.92971440022362
10
50.000000000000036
20
174.92971440022362
10
50.000000000000036
20
164.27858913858785
10
45.000000000000036
20
164.27858913858785
0
LWPOLYLINE
5
101
100
AcDbEntity
8
0
100
AcDbPolyline
90
24
70
1
43
0.0
10
-5.0000000000000142
20
113.00000000000009
10
-1.1102230246251565e-14
20
113.00000000000009
10
-8.8817841970012523e-15
20
105.00000000000009
10
45.000000000000014
20
105.00000000000009
10
45.000000000000028
20
64.999999999999972
10
53.527025288831993
20
64.999999999999943
10
53.527025288831993
20
59.999999999999943
10
43.106938212985924
20
59.999999999999957
10
43.106938212985924
20
64.999999999999957
10
32.686851137139854
20
64.999999999999972
10
32.686851137139854
20
59.999999999999964
10
22.266764061293784
20
59.999999999999972
10
22.266764061293784
20
64.999999999999972
10
11.846676985447733
20
64.999999999999986
10
11.846676985447733
20
59.999999999999993
10
1.4265899096016632
20
60
10
1.4265899096016721
20
65
10
-8.8817841970012523e-15
20
65.000000000000114
10
-1.1102230246251565e-14
20
77.000000000000085
10
-5.0000000000000178
20
77.000000000000085
10
-5.0000000000000169
20
89.000000000000085
10
-1.1102230246251565e-14
20
89.000000000000085
10
-1.1102230246251565e-14
20
101.00000000000009
10
-5.0000000000000178
20
101.00000000000009
0
LWPOLYLINE
5
102
100
AcDbEntity
8
0
100
AcDbPolyline
90
60
70
1
43
0.0
10
75.000000000000028
20
155.38959396008056
10
80.000000000000028
20
155.38959396008056
10
80.000000000000028
20
166.68829320509064
10
75.000000000000043
20
166.68829320509064
10
75.000000000000043
20
177.98699245010073
10
80.000000000000057
20
177.98699245010073
10
80.000000000000057
20
189.28569169511081
10
75.000000000000043
20
189.28569169511081
10
75.000000000000057
20
200.5843909401209
10
80.000000000000057
20
200.5843909401209
10
80.000000000000057
20
211.88309018513095
10
59.559688112060641
20
211.88309018513087
10
59.559688112060641
20
206.88309018513095
10
44.11937622412124
20
206.88309018513098
10
44.11937622412124
20
211.88309018513092
10
28.679064336181792
20
211.88309018513092
10
28.679064336181792
20
206.88309018513098
10
13.238752448242384
20
206.88309018513104
10
13.238752448242384
20
211.88309018513095
10
-2.2015594396970251
20
211.88309018513095
10
-2.2015594396970339
20
206.88309018513104
10
-17.641871327636444
20
206.88309018513107
10
-17.641871327636434
20
211.88309018513098
10
-33.082183215575874
20
211.88309018513098
10
-33.082183215575881
20
206.88309018513107
10
-48.522495103515283
20
206.88309018513107
10
-48.522495103515283
20
211.88309018513098
10
-137.72103555918983
20
211.88309018513112
10
-130.47057326289658
20
208.50214409120557
10
-132.58366457160005
20
203.97060515602234
10
-139.8341268678933
20
207.35155124994787
10
-147.92462145280717
20
190.00142962225479
10
-84.604051534367244
20
45.000000000000071
10
110.81928329390192
20
44.999999999999893
42
0.0056072384566638435
10
110.64574660616032
20
45.473858735844885
10
110.64786925530306
20
45.474406801496876
42
0.0015971734044788611
10
110.83801512904341
20
44.999999999999943
10
118.81049961377748
20
44.999999999999893
10
178.45465228132929
20
60.40005399867205
42
2.078999374217521
10
172.20465228132929
20
84.606199912468455
10
96.270166537924979
20
64.999999999999886
10
95.207373592216243
20
64.999999999999901
10
95.207373592216243
20
59.999999999999901
10
84.787286516370159
20
59.999999999999915
10
84.787286516370159
20
64.999999999999915
10
80.000000000000014
20
64.999999999999929
10
80.000000000000014
20
76.298699245009985
10
75.000000000000014
20
76.298699245009985
10
75.000000000000028
20
87.597398490020055
10
80.000000000000014
20
87.597398490020055
10
80.000000000000014
20
98.896097735030139
10
75.000000000000028
20
98.896097735030139
10
75.000000000000028
20
110.19479698004022
10
80.000000000000028
20
110.19479698004022
10
80.000000000000028
20
121.49349622505031
10
75.000000000000028
20
121.49349622505031
10
75.000000000000028
20
132.79219547006039
10
80.000000000000028
20
132.79219547006039
10
80.000000000000028
20
144.09089471507048
10
75.000000000000028
20
144.09089471507048
0
CIRCLE
5
103
100
AcDbEntity
8
0
100
AcDbCircle
10
185
20
75
30
0
40
11.000000000000014
210
0
220
-0
230
1
0
LWPOLYLINE
5
104
100
AcDbEntity
8
0
100
AcDbPolyline
90
4
70
1
43
0.0
10
68.499999999999901
20
184.99999999999997
10
68.499999999999901
20
164.99999999999997
10
53.499999999999901
20
164.99999999999997
10
53.499999999999901
20
184.99999999999997
0
LWPOLYLINE
5
105
100
AcDbEntity
8
0
100
AcDbPolyline
90
4
70
1
43
0.0
10
-115.96964867031016
20
201.74025190335445
10
-118.08273997901365
20
197.20871296817123
10
-125.33320227530689
20
200.58965906209679
10
-123.22011096660336
20
205.12119799728001
0
LWPOLYLINE
5
106
100
AcDbEntity
8
0
100
AcDbPolyline
90
4
70
1
43
0.0
10
-142.48677473058723
20
187.46572005181062
10
-140.37368342188375
20
191.99725898699393
10
-134.93583669966384
20
189.46154941654976
10
-137.04892800836734
20
184.93001048136645
0
LWPOLYLINE
5
107
100
AcDbEntity
8
0
100
AcDbPolyline
90
4
70
1
43
0.0
10
-131.61108128614742
20
182.39430091092228
10
-129.49798997744392
20
186.92583984610559
10
-124.06014325522403
20
184.39013027566142
10
-126.17323456392751
20
179.85859134047811
0
LWPOLYLINE
5
108
100
AcDbEntity
8
0
100
AcDbPolyline
90
4
70
1
43
0.0
10
74.367199440524118
20
64.999999999999929
10
74.367199440524118
20
59.999999999999929
10
63.947112364678048
20
59.999999999999936
10
63.947112364678048
20
64.999999999999943
0
LWPOLYLINE
5
109
100
AcDbEntity
8
0
100
AcDbPolyline
90
4
70
1
43
0.0
10
-8.9934971662443797
20
65.000000000000014
10
-8.9934971662443886
20
60.000000000000007
10
-19.413584242090458
20
60.000000000000014
10
-19.413584242090451
20
65.000000000000014
0
ENDSEC
0
SECTION
2
OBJECTS
0
DICTIONARY
5
C
100
AcDbDictionary
3
ACAD_GROUP
350
D
3
ACAD_MLINESTYLE
350
17
0
DICTIONARY
5
D
100
AcDbDictionary
0
DICTIONARY
5
1A
330
C
100
AcDbDictionary
0
DICTIONARY
5
17
100
AcDbDictionary
0
ENDSEC
0
EOF
