0
SECTION
2
HEADER
9
$INSUNITS
70
4
9
$ACADVER
1
AC1014
9
$HANDSEED
5
FFFF
0
ENDSEC
0
SECTION
2
TABLES
0
TABLE
2
VPORT
5
8
100
AcDbSymbolTable
0
ENDTAB
0
TABLE
2
LTYPE
5
5
100
AcDbSymbolTable
0
LTYPE
5
14
100
AcDbSymbolTableRecord
100
AcDbLinetypeTableRecord
2
BYBLOCK
70
0
0
LTYPE
5
15
100
AcDbSymbolTableRecord
100
AcDbLinetypeTableRecord
2
BYLAYER
70
0
0
ENDTAB
0
TABLE
2
LAYER
5
2
100
AcDbSymbolTable
70
2
0
LAYER
5
50
100
AcDbSymbolTableRecord
100
AcDbLayerTableRecord
2
0
70
0
6
CONTINUOUS
0
ENDTAB
0
TABLE
2
STYLE
5
3
100
AcDbSymbolTable
70
1
0
STYLE
5
11
100
AcDbSymbolTableRecord
100
AcDbTextStyleTableRecord
2
STANDARD
70
0
0
ENDTAB
0
TABLE
2
VIEW
5
6
100
AcDbSymbolTable
70
0
0
ENDTAB
0
TABLE
2
UCS
5
7
100
AcDbSymbolTable
70
0
0
ENDTAB
0
TABLE
2
APPID
5
9
100
AcDbSymbolTable
70
2
0
APPID
5
12
100
AcDbSymbolTableRecord
100
AcDbRegAppTableRecord
2
ACAD
70
0
0
ENDTAB
0
TABLE
2
DIMSTYLE
5
A
100
AcDbSymbolTable
70
1
0
ENDTAB
0
TABLE
2
BLOCK_RECORD
5
1
100
AcDbSymbolTable
70
1
0
BLOCK_RECORD
5
1F
100
AcDbSymbolTableRecord
100
AcDbBlockTableRecord
2
*MODEL_SPACE
0
BLOCK_RECORD
5
1B
100
AcDbSymbolTableRecord
100
AcDbBlockTableRecord
2
*PAPER_SPACE
0
ENDTAB
0
ENDSEC
0
SECTION
2
BLOCKS
0
BLOCK
5
20
100
AcDbEntity
100
AcDbBlockBegin
2
*MODEL_SPACE
0
ENDBLK
5
21
100
AcDbEntity
100
AcDbBlockEnd
0
BLOCK
5
1C
100
AcDbEntity
100
AcDbBlockBegin
2
*PAPER_SPACE
0
ENDBLK
5
1D
100
AcDbEntity
100
AcDbBlockEnd
0
ENDSEC
0
SECTION
2
ENTITIES
0
LWPOLYLINE
5
100
100
AcDbEntity
8
0
100
AcDbPolyline
90
4
70
1
43
0.0
10
-13.00000000000006
20
125.64284584755538
10
-13.000000000000062
20
128.64284584755541
10
12.999999999999938
20
128.64284584755541
10
12.999999999999938
20
125.64284584755539
0
CIRCLE
5
101
100
AcDbEntity
8
0
100
AcDbCircle
10
0
20
175
30
-8.8817841970012523e-15
40
10.999999999999995
210
0
220
-0
230
1
0
LWPOLYLINE
5
102
100
AcDbEntity
8
0
100
AcDbPolyline
90
60
70
1
43
0.0
10
-5
20
206.88309018513098
10
-5
20
211.88309018513098
10
-15
20
211.88309018513098
10
-15
20
200.58439094012095
10
-20
20
200.58439094012095
10
-20
20
189.28569169511087
10
-15
20
189.28569169511087
10
-15
20
177.98699245010079
10
-20
20
177.98699245010079
10
-20
20
166.6882932050907
10
-15
20
166.6882932050907
10
-15
20
155.38959396008062
10
-20
20
155.38959396008059
10
-20
20
144.0908947150705
10
-15
20
144.0908947150705
10
-15
20
132.79219547006045
10
-20
20
132.79219547006045
10
-20
20
121.49349622505035
10
-15
20
121.49349622505035
10
-15
20
110.19479698004027
10
-20
20
110.19479698004027
10
-20
20
98.896097735030182
10
-15
20
98.896097735030182
10
-15
20
87.597398490020097
10
-20
20
87.597398490020097
10
-20
20
76.298699245010027
10
-15
20
76.298699245010027
10
-15
20
64.999999999999943
10
-5
20
64.999999999999943
10
-5
20
59.999999999999943
10
5
20
59.999999999999943
10
5
20
64.999999999999943
10
15
20
64.999999999999943
10
15
20
76.298699245009999
10
20
20
76.298699245009999
10
20
20
87.597398490020083
10
15
20
87.597398490020083
10
15
20
98.896097735030168
10
20
20
98.896097735030168
10
20
20
110.19479698004025
10
15
20
110.19479698004025
10
15
20
121.49349622505034
10
20
20
121.49349622505034
10
20
20
132.79219547006042
10
15
20
132.79219547006042
10
15
20
144.0908947150705
10
20
20
144.0908947150705
10
20
20
155.38959396008059
10
15
20
155.38959396008059
10
15
20
166.6882932050907
10
20
20
166.6882932050907
10
20
20
177.98699245010079
10
15
20
177.98699245010079
10
15
20
189.28569169511087
10
20
20
189.28569169511087
10
20
20
200.58439094012095
10
15
20
200.58439094012095
10
15
20
211.88309018513098
10
5
20
211.88309018513098
10
5
20
206.88309018513098
0
ENDSEC
0
SECTION
2
OBJECTS
0
DICTIONARY
5
C
100
AcDbDictionary
3
ACAD_GROUP
350
D
3
ACAD_MLINESTYLE
350
17
0
DICTIONARY
5
D
100
AcDbDictionary
0
DICTIONARY
5
1A
330
C
100
AcDbDictionary
0
DICTIONARY
5
17
100
AcDbDictionary
0
ENDSEC
0
EOF
