<?xml version="1.0" encoding="UTF-8" standalone="no"?>
<!-- Created with Inkscape (http://www.inkscape.org/) -->

<svg
   width="200mm"
   height="200mm"
   viewBox="0 0 200 200"
   version="1.1"
   id="svg1"
   xml:space="preserve"
   inkscape:version="1.3.2 (091e20e, 2023-11-25, custom)"
   sodipodi:docname="logo-dark-flattened.svg"
   xmlns:inkscape="http://www.inkscape.org/namespaces/inkscape"
   xmlns:sodipodi="http://sodipodi.sourceforge.net/DTD/sodipodi-0.dtd"
   xmlns="http://www.w3.org/2000/svg"
   xmlns:svg="http://www.w3.org/2000/svg"><sodipodi:namedview
     id="namedview1"
     pagecolor="#ffffff"
     bordercolor="#000000"
     borderopacity="0.25"
     inkscape:showpageshadow="2"
     inkscape:pageopacity="0.0"
     inkscape:pagecheckerboard="0"
     inkscape:deskcolor="#d1d1d1"
     inkscape:document-units="mm"
     inkscape:zoom="1.1893044"
     inkscape:cx="355.24967"
     inkscape:cy="468.7614"
     inkscape:window-width="2400"
     inkscape:window-height="1494"
     inkscape:window-x="-11"
     inkscape:window-y="-11"
     inkscape:window-maximized="1"
     inkscape:current-layer="layer1" /><defs
     id="defs1" /><g
     inkscape:label="GyroCycle Logo"
     inkscape:groupmode="layer"
     id="layer1"><path
       id="path1"
       style="stroke-width:0.324804;fill:#fffff5;fill-opacity:1"
       inkscape:label="gyrocycle logo"
       d="M 75.646545 25.151953 C 71.773707 25.314036 68.666992 28.565228 68.681079 32.441431 L 68.932743 101.68113 C 68.946831 105.55734 72.076014 108.5472 75.948853 108.38512 C 79.82169 108.22303 82.928406 104.97185 82.914319 101.09564 L 82.799597 69.527539 L 89.895805 69.559062 L 89.416764 124.58258 L 62.738806 124.58258 A 25.956038 25.798729 0 0 0 36.853048 100.57526 A 25.956038 25.798729 0 0 0 10.897009 126.3742 A 25.956038 25.798729 0 0 0 36.853048 152.17314 A 25.956038 25.798729 0 0 0 58.502889 140.6002 L 126.80725 140.6002 C 129.6873 140.6002 132.19552 139.09028 133.60632 136.82059 C 133.94758 136.30933 134.23365 135.75221 134.43882 135.14627 L 151.41866 84.999463 L 156.61421 102.50795 A 25.956038 25.798729 0 0 0 142.36547 125.47348 A 25.956038 25.798729 0 0 0 168.32151 151.27242 A 25.956038 25.798729 0 0 0 194.27755 125.47348 A 25.956038 25.798729 0 0 0 168.32151 99.675053 A 25.956038 25.798729 0 0 0 167.4642 99.736031 L 157.43432 65.939128 C 157.40543 64.544793 156.94537 63.220541 156.13672 62.127474 C 156.03076 61.94459 155.91525 61.770318 155.79101 61.603992 C 154.71127 58.914632 152.05211 57.034528 149.00331 57.098324 L 96.445276 58.197998 C 93.136867 58.267226 90.486808 60.601296 89.888053 63.69172 L 82.77841 63.660197 L 82.662655 31.855937 C 82.648567 27.979734 79.519383 24.98987 75.646545 25.151953 z M 141.31334 71.244747 L 123.25294 124.58258 L 103.40041 124.58258 L 103.85826 72.028678 L 141.31334 71.244747 z " /></g></svg>
